<svg width="229" height="252" viewBox="0 0 229 252" fill="none" xmlns="http://www.w3.org/2000/svg">
<path d="M33.938 2.29687C38.2502 4.28785 42.3586 6.63142 46.4688 9C47.3512 9.50402 48.2336 10.008 49.1428 10.5273C54.1976 13.4212 59.2325 16.3472 64.259 19.2891C70.5395 22.9523 76.8866 26.4881 83.2539 30C92.483 35.0978 101.633 40.3131 110.745 45.6138C118.435 50.0828 126.156 54.4936 133.896 58.875C134.485 59.2084 135.074 59.5417 135.681 59.8852C138.675 61.58 141.67 63.2741 144.666 64.9678C148.221 66.9787 151.775 68.9928 155.328 71.0078C155.91 71.3376 156.491 71.6675 157.091 72.0073C160.016 73.666 162.94 75.325 165.865 76.9841C171.904 80.4098 177.946 83.8313 183.992 87.2461C189.899 90.5825 195.798 93.9325 201.691 97.292C204.326 98.7901 206.968 100.275 209.612 101.758C217.389 106.172 224.398 110.391 227.875 119C228.74 126.336 228.933 133.069 224.529 139.254C218.581 145.388 211.495 149.183 204.065 153.312C202.807 154.018 201.548 154.725 200.29 155.432C197.68 156.898 195.068 158.361 192.455 159.823C186.442 163.189 180.453 166.597 174.461 170C172.112 171.332 169.763 172.664 167.414 173.996C166.832 174.326 166.251 174.656 165.651 174.996C162.104 177.007 158.557 179.017 155.009 181.026C143.001 187.825 131.002 194.638 119.031 201.5C107.079 208.352 95.0979 215.154 83.1085 221.943C78.8118 224.376 74.5171 226.812 70.2232 229.25C63.3157 233.172 56.4054 237.088 49.4922 241C48.5859 241.513 47.6796 242.026 46.7458 242.555C44.4507 243.852 42.1535 245.146 39.855 246.438C39.2194 246.797 38.5838 247.157 37.9289 247.527C31.0657 251.369 25.0431 251.798 17.2422 251C11.2336 248.856 6.69313 244.158 3.13282 239C-0.0758549 229.449 2.57721 219.879 6.03816 210.816C6.44788 209.693 6.85761 208.571 7.27975 207.414C8.60749 203.789 9.96416 200.176 11.3213 196.562C12.2428 194.06 13.1626 191.557 14.08 189.053C17.9041 178.639 21.806 168.253 25.7132 157.868C26.7255 155.177 27.7353 152.485 28.7449 149.793C29.9471 146.589 31.1651 143.391 32.3953 140.198C32.9347 138.775 33.4739 137.352 34.0128 135.93C34.4756 134.726 34.9385 133.521 35.4153 132.281C37.4144 125.556 35.9123 120.86 33.501 114.547C33.192 113.714 32.883 112.881 32.5646 112.023C31.8916 110.213 31.2143 108.404 30.5332 106.596C29.4476 103.712 28.3762 100.823 27.3085 97.9314C24.1395 89.3593 20.9449 80.7968 17.7215 72.2446C15.6006 66.6168 13.4999 60.9819 11.4103 55.3426C10.6013 53.1726 9.78446 51.0055 8.9593 48.8414C-0.461783 24.1244 -0.461783 24.1244 2.79647 13.8911C8.74369 1.85097 21.6985 -2.11937 33.938 2.29687Z" fill="#8DA6E7"/>
</svg>
